<svg xmlns="http://www.w3.org/2000/svg" width="500px" height="500px" viewBox="0 0 2000 2000" ><path fill="#f0865d" d="M 864.00,546.00 C 869.69,528.93 876.82,512.66 885.72,497.00 923.98,429.72 987.52,383.07 1063.00,366.42 1076.59,363.43 1094.13,361.02 1108.00,361.00 1108.00,361.00 1120.00,360.18 1120.00,360.18 1120.00,360.18 1130.00,361.00 1130.00,361.00 1178.63,361.57 1227.41,377.79 1268.00,404.34 1278.13,410.97 1287.88,418.33 1297.00,426.28 1297.00,426.28 1312.00,439.55 1312.00,439.55 1316.76,442.79 1319.24,439.68 1323.00,436.59 1332.63,428.67 1335.73,426.32 1348.00,423.66 1353.90,422.38 1358.96,421.60 1365.00,422.42 1370.59,423.19 1375.86,423.82 1381.00,426.38 1404.44,438.02 1406.27,464.01 1406.00,487.00 1405.66,515.90 1386.31,539.03 1386.00,565.00 1385.89,574.32 1386.93,587.18 1392.65,594.96 1402.23,608.02 1426.65,610.91 1441.00,605.44 1446.52,603.33 1462.56,588.80 1468.00,584.13 1468.00,584.13 1520.00,540.27 1520.00,540.27 1520.00,540.27 1624.00,452.42 1624.00,452.42 1624.00,452.42 1668.00,415.27 1668.00,415.27 1668.00,415.27 1685.00,400.91 1685.00,400.91 1685.00,400.91 1719.83,364.00 1719.83,364.00 1719.83,364.00 1818.96,257.00 1818.96,257.00 1818.96,257.00 1828.01,247.00 1828.01,247.00 1828.01,247.00 1854.00,222.84 1854.00,222.84 1858.75,218.59 1865.48,211.61 1871.00,209.00 1871.00,209.00 1872.09,226.00 1872.09,226.00 1872.09,226.00 1872.80,236.00 1872.80,236.00 1873.02,238.45 1873.11,242.72 1872.80,245.00 1871.53,250.00 1862.50,263.70 1859.42,269.00 1859.42,269.00 1823.85,329.00 1823.85,329.00 1823.85,329.00 1770.60,420.00 1770.60,420.00 1770.60,420.00 1755.42,447.00 1755.42,447.00 1751.97,453.13 1751.52,455.72 1745.98,460.71 1740.03,466.09 1730.46,473.13 1723.00,476.07 1723.00,476.07 1687.00,485.21 1687.00,485.21 1676.79,488.27 1655.88,498.16 1646.00,503.26 1646.00,503.26 1614.00,521.78 1614.00,521.78 1614.00,521.78 1583.00,547.73 1583.00,547.73 1583.00,547.73 1533.00,589.92 1533.00,589.92 1533.00,589.92 1457.00,654.08 1457.00,654.08 1457.00,654.08 1437.01,671.00 1437.01,671.00 1433.86,673.79 1429.36,677.87 1428.10,682.00 1427.30,684.59 1427.87,686.77 1429.51,688.89 1434.63,695.52 1445.69,693.02 1452.00,689.59 1455.23,687.83 1458.94,684.45 1462.00,682.13 1473.59,673.33 1494.90,656.13 1510.00,657.32 1518.46,657.99 1526.04,661.69 1533.00,666.36 1554.42,680.72 1566.29,704.28 1566.00,730.00 1565.86,742.41 1560.03,766.53 1553.53,777.00 1544.48,791.60 1527.42,802.41 1510.00,801.99 1504.86,801.86 1502.68,800.93 1498.00,798.99 1479.84,791.44 1473.54,781.07 1461.15,767.00 1454.20,759.10 1445.61,749.23 1434.00,750.10 1422.70,750.94 1418.12,763.23 1417.85,773.00 1417.85,773.00 1417.85,786.00 1417.85,786.00 1416.06,797.14 1407.93,806.92 1396.00,806.82 1388.17,806.75 1383.01,800.33 1376.00,798.00 1369.94,824.82 1355.32,866.76 1345.42,893.00 1321.77,955.70 1293.23,1016.11 1261.31,1075.00 1210.42,1168.88 1150.04,1259.79 1084.42,1344.00 1008.97,1440.84 925.33,1531.37 831.00,1610.08 773.61,1657.97 704.85,1706.28 636.00,1735.85 613.59,1745.47 573.03,1760.28 549.00,1760.00 544.11,1759.94 532.88,1758.40 528.00,1757.34 509.33,1753.29 503.83,1748.85 488.00,1740.00 492.17,1733.44 498.39,1731.82 505.00,1728.68 505.00,1728.68 526.00,1717.23 526.00,1717.23 549.32,1704.55 571.27,1688.72 592.00,1672.20 655.59,1621.53 706.43,1557.64 742.75,1485.00 755.48,1459.54 769.21,1424.53 776.37,1397.00 776.37,1397.00 782.14,1374.00 782.14,1374.00 782.58,1369.79 780.63,1366.67 776.00,1367.71 765.61,1370.03 759.71,1383.42 754.22,1391.00 748.23,1399.26 742.11,1402.87 732.00,1403.68 727.70,1404.02 720.07,1402.48 716.00,1400.94 711.47,1399.22 707.65,1397.03 704.00,1393.82 683.43,1375.72 687.95,1349.67 701.67,1329.00 701.67,1329.00 708.58,1319.00 708.58,1319.00 712.93,1312.90 720.16,1304.27 712.77,1297.30 708.56,1293.32 701.00,1293.84 698.02,1299.11 698.02,1299.11 695.64,1309.00 695.64,1309.00 692.72,1317.63 686.93,1321.34 678.00,1320.96 675.25,1320.84 671.27,1319.64 669.00,1320.31 666.57,1321.02 663.01,1324.25 661.00,1325.92 661.00,1325.92 645.00,1339.42 645.00,1339.42 645.00,1339.42 583.00,1391.75 583.00,1391.75 583.00,1391.75 467.00,1489.73 467.00,1489.73 467.00,1489.73 410.09,1538.04 410.09,1538.04 410.09,1538.04 392.28,1562.00 392.28,1562.00 378.06,1582.32 357.73,1613.03 339.00,1628.38 339.00,1628.38 318.00,1643.42 318.00,1643.42 300.61,1656.90 283.14,1672.20 261.00,1676.99 247.05,1680.00 237.55,1679.58 225.00,1672.27 220.28,1669.52 216.15,1666.69 213.13,1662.00 208.75,1655.17 207.01,1644.01 207.00,1636.00 207.00,1636.00 207.00,1628.00 207.00,1628.00 207.35,1598.47 229.49,1562.42 247.40,1540.00 255.17,1530.27 262.18,1522.42 272.00,1514.66 279.02,1509.12 285.42,1505.55 293.00,1501.00 293.00,1501.00 311.00,1490.26 311.00,1490.26 324.65,1483.20 352.82,1473.20 368.00,1468.34 368.00,1468.34 429.00,1447.68 429.00,1447.68 429.00,1447.68 444.00,1440.07 444.00,1440.07 444.00,1440.07 454.00,1433.02 454.00,1433.02 454.00,1433.02 484.00,1411.42 484.00,1411.42 529.25,1379.39 566.52,1345.77 603.00,1304.00 603.00,1304.00 612.72,1293.96 612.72,1293.96 627.67,1277.65 643.38,1261.22 656.02,1243.00 661.22,1235.52 670.48,1223.19 670.96,1214.00 671.66,1200.45 665.66,1181.86 651.00,1178.24 648.40,1177.60 645.66,1177.07 643.00,1177.57 634.28,1179.18 619.15,1192.31 610.00,1197.21 599.52,1202.81 590.43,1202.13 579.00,1202.00 563.44,1201.81 544.21,1190.23 536.35,1177.00 531.45,1168.76 529.89,1159.43 530.00,1150.00 530.23,1130.14 538.41,1115.26 560.00,1115.00 560.00,1115.00 568.00,1115.00 568.00,1115.00 568.00,1115.00 583.00,1116.00 583.00,1116.00 583.00,1116.00 588.00,1116.00 588.00,1116.00 597.08,1115.99 611.13,1113.03 619.00,1108.47 623.18,1106.05 627.57,1102.00 628.38,1097.00 629.52,1089.91 620.80,1081.46 616.00,1077.17 599.91,1062.79 580.64,1058.36 562.00,1048.74 502.54,1018.06 456.24,965.97 431.45,904.00 388.59,796.86 417.21,670.75 503.00,593.17 535.09,564.15 570.80,544.65 612.00,531.98 628.35,526.95 657.07,521.20 674.00,521.00 674.00,521.00 693.00,520.04 693.00,520.04 693.00,520.04 710.00,521.00 710.00,521.00 710.00,521.00 727.00,522.72 727.00,522.72 757.91,526.74 787.92,535.66 816.00,549.26 830.42,556.24 843.70,565.14 857.00,574.00 857.72,565.18 861.18,554.46 864.00,546.00 Z M 1487.00,361.22 C 1493.91,365.32 1503.18,375.59 1506.49,383.00 1511.82,394.97 1511.38,413.68 1504.65,425.00 1496.60,438.55 1477.25,448.18 1462.00,450.56 1454.47,451.74 1452.37,450.38 1446.00,446.72 1434.82,440.28 1428.19,433.35 1424.00,421.00 1416.93,400.13 1417.13,375.30 1438.00,362.27 1442.63,359.38 1447.70,357.64 1453.00,356.46 1462.05,355.21 1479.12,356.55 1487.00,361.22 Z M 1487.52,899.00 C 1484.35,906.72 1474.51,914.24 1467.00,917.56 1461.49,919.99 1457.06,921.21 1451.00,920.96 1440.89,920.55 1421.04,910.37 1414.53,902.83 1407.29,894.45 1404.58,880.85 1410.36,871.01 1416.81,860.04 1437.94,853.25 1450.00,851.47 1473.25,850.26 1497.05,875.76 1487.52,899.00 Z M 530.59,1266.00 C 540.22,1283.35 524.36,1310.16 504.00,1308.91 489.22,1308.00 468.35,1293.33 470.36,1277.00 471.82,1265.15 488.22,1254.76 499.00,1252.50 509.20,1251.81 525.37,1256.62 530.59,1266.00 Z" /></svg>
